# xmcd CD database file
#
# Track frame offsets:
#	150
#	18515
#	37885
#	57725
#	75815
#	95410
#	112662
#	133177
#	164390
#	184282
#	207762
#	231637
#	253577
#
# Disc length: 3662 seconds
#
# Revision: 1
# Processed by: cddbd v1.5.1PL0 Copyright (c) Steve Scherf et al.
# Submitted via: CDex 1.51
#
DISCID=a90e4c0d
DTITLE=Midnight Blue - Take The Money And Run
DYEAR=1994
DGENRE=Hard Rock
TTITLE0=Surrender
TTITLE1=Makinｴ Love
TTITLE2=Remember
TTITLE3=Call Me
TTITLE4=Till The Morning
TTITLE5=Little Heartbreaker
TTITLE6=Hold On The Heartbreak's Over
TTITLE7=Until Tomorrow
TTITLE8=Hands Of A Lover
TTITLE9=One Way To Heaven
TTITLE10=Take The Money And Run
TTITLE11=After Midnight
TTITLE12=Party
EXTD=YEAR: 1994
EXTT0=
EXTT1=
EXTT2=
EXTT3=
EXTT4=
EXTT5=
EXTT6=
EXTT7=
EXTT8=
EXTT9=
EXTT10=
EXTT11=
EXTT12=
PLAYORDER=
